<?xml version="1.0" encoding="utf-8"?>
<!-- Generator: Adobe Illustrator 15.1.0, SVG Export Plug-In . SVG Version: 6.00 Build 0)  -->
<!DOCTYPE svg PUBLIC "-//W3C//DTD SVG 1.1//EN" "http://www.w3.org/Graphics/SVG/1.1/DTD/svg11.dtd" [
	<!ENTITY ns_extend "http://ns.adobe.com/Extensibility/1.0/">
	<!ENTITY ns_ai "http://ns.adobe.com/AdobeIllustrator/10.0/">
	<!ENTITY ns_graphs "http://ns.adobe.com/Graphs/1.0/">
	<!ENTITY ns_vars "http://ns.adobe.com/Variables/1.0/">
	<!ENTITY ns_imrep "http://ns.adobe.com/ImageReplacement/1.0/">
	<!ENTITY ns_sfw "http://ns.adobe.com/SaveForWeb/1.0/">
	<!ENTITY ns_custom "http://ns.adobe.com/GenericCustomNamespace/1.0/">
	<!ENTITY ns_adobe_xpath "http://ns.adobe.com/XPath/1.0/">
]>
<svg version="1.1" id="Calque_1" xmlns:x="&ns_extend;" xmlns:i="&ns_ai;" xmlns:graph="&ns_graphs;"
	 xmlns="http://www.w3.org/2000/svg" xmlns:xlink="http://www.w3.org/1999/xlink" x="0px" y="0px" width="97px" height="45px"
	 viewBox="0 0 97 45" enable-background="new 0 0 97 45" xml:space="preserve">
<metadata>
	<sfw  xmlns="&ns_sfw;">
		<slices></slices>
		<sliceSourceBounds  x="249.893" y="406.01" width="20.232" height="28.689" bottomLeftOrigin="true"></sliceSourceBounds>
	</sfw>
</metadata>
<path fill="#0065FC" d="M18.102,33.387c-0.469-0.633-0.926-1.371-1.371-2.215c-0.422-0.867-0.82-1.793-1.195-2.777
	c-0.258-0.797-0.516-1.512-0.773-2.145s-0.469-1.16-0.633-1.582c1.406-0.891,2.484-2.016,3.234-3.375
	c0.773-1.359,1.16-2.848,1.16-4.465c0-1.43-0.258-2.637-0.773-3.621c-0.516-1.008-1.184-1.816-2.004-2.426
	c-0.797-0.633-1.676-1.09-2.637-1.371s-1.887-0.422-2.777-0.422c-0.258,0-0.504,0.012-0.738,0.035c-0.234,0-0.457,0.012-0.668,0.035
	C8.879,8.473,8.656,8.227,8.258,8.32C7.977,8.367,7.672,8.496,7.344,8.707C7.039,8.918,6.758,9.152,6.5,9.41
	c-0.656,0.164-1.254,0.375-1.793,0.633c-0.516,0.234-1.02,0.504-1.512,0.809c-0.281,0.188-0.574,0.445-0.879,0.773
	c-0.305,0.305-0.574,0.668-0.809,1.09c-0.234,0.398-0.41,0.832-0.527,1.301c-0.117,0.445-0.117,0.891,0,1.336
	c0.117,0.375,0.258,0.715,0.422,1.02c0.141,0.258,0.316,0.516,0.527,0.773c0.211,0.234,0.469,0.375,0.773,0.422
	c0.188-0.984,0.539-1.852,1.055-2.602s1.125-1.359,1.828-1.828c-0.023,0.727-0.047,1.535-0.07,2.426
	C5.492,16.43,5.457,17.355,5.41,18.34c-0.023,0.961-0.059,1.957-0.105,2.988c-0.047,1.008-0.094,2.004-0.141,2.988H4.637
	c-0.375,0-0.75-0.035-1.125-0.105c-0.047,0.141-0.07,0.328-0.07,0.563c0,0.188,0.023,0.434,0.07,0.738
	c0.047,0.281,0.141,0.609,0.281,0.984l0.633,0.07c0.234,0.023,0.457,0.047,0.668,0.07c-0.023,0.164-0.035,0.328-0.035,0.492
	s-0.012,0.328-0.035,0.492c-0.07,1.5-0.105,2.73-0.105,3.691s0.012,1.746,0.035,2.355C5,34.301,5.07,34.793,5.164,35.145
	c0.094,0.375,0.199,0.727,0.316,1.055c0.305,0.047,0.656,0.023,1.055-0.07c0.328-0.07,0.703-0.188,1.125-0.352
	c0.445-0.164,0.902-0.422,1.371-0.773c-0.094-0.258-0.164-0.527-0.211-0.809c-0.047-0.258-0.094-0.551-0.141-0.879
	c-0.023-0.328-0.059-0.715-0.105-1.16c-0.023-0.469-0.047-1.031-0.07-1.688c-0.07-1.055-0.105-2.332-0.105-3.832
	c1.078-0.117,2.074-0.328,2.988-0.633c0.164,0.398,0.352,0.879,0.563,1.441c0.234,0.563,0.469,1.207,0.703,1.934
	c0.234,0.75,0.492,1.547,0.773,2.391c0.305,0.82,0.633,1.594,0.984,2.32c0.375,0.727,0.809,1.348,1.301,1.863
	s1.078,0.844,1.758,0.984c0.492,0.07,0.961,0.07,1.406,0c0.398-0.047,0.797-0.164,1.195-0.352s0.75-0.516,1.055-0.984
	c-0.516-0.07-1.031-0.305-1.547-0.703C19.063,34.523,18.57,34.02,18.102,33.387z M12.617,22.523
	c-0.656,0.492-1.371,0.844-2.145,1.055c-0.75,0.211-1.441,0.363-2.074,0.457c0-0.914,0.012-1.828,0.035-2.742
	c0.023-0.938,0.035-1.828,0.035-2.672c0.023-0.844,0.047-1.629,0.07-2.355s0.035-1.348,0.035-1.863c0-0.867,0.035-1.676,0.105-2.426
	c0.141-0.023,0.27-0.035,0.387-0.035h0.352c0.633,0,1.266,0.105,1.898,0.316c0.656,0.188,1.254,0.504,1.793,0.949
	c0.539,0.422,0.973,0.984,1.301,1.688c0.352,0.68,0.527,1.512,0.527,2.496c0,1.289-0.223,2.344-0.668,3.164
	S13.273,22.031,12.617,22.523z"/>
</svg>
